Coordinates
version=1
nRows=8
nColumns=40
inDegrees=yes

Units are S.I. units (second, meters, Newtons, ...)
Angles are in degrees.

endheader
time	pelvis_tilt	pelvis_list	pelvis_rotation	pelvis_tx	pelvis_ty	pelvis_tz	hip_flexion_r	hip_adduction_r	hip_rotation_r	knee_angle_r	knee_angle_r_beta	ankle_angle_r	subtalar_angle_r	mtp_angle_r	hip_flexion_l	hip_adduction_l	hip_rotation_l	knee_angle_l	knee_angle_l_beta	ankle_angle_l	subtalar_angle_l	mtp_angle_l	lumbar_extension	lumbar_bending	lumbar_rotation	arm_flex_r	arm_add_r	arm_rot_r	elbow_flex_r	pro_sup_r	wrist_flex_r	wrist_dev_r	arm_flex_l	arm_add_l	arm_rot_l	elbow_flex_l	pro_sup_l	wrist_flex_l	wrist_dev_l
      2.18500000	    -22.59422891	      7.75110963	     -6.35414345	     -3.25193769	      0.93207950	      0.39683404	     -9.36522874	     -8.43848554	      8.11363084	     11.67502947	     11.67502947	    -27.88199203	      0.00000000	      0.00000000	     78.83292683	     -5.76255820	     -4.41218326	     97.42049806	     97.42049806	      4.78803833	      0.00000000	      0.00000000	    -16.61649079	    -15.51922812	      0.77646654	     70.75506038	    -18.29940601	      3.58777070	    130.05142228	     28.50945168	      0.00000000	      0.00000000	    -75.90842506	    -13.40186436	    -39.33125195	     78.33585263	     87.88568633	      0.00000000	      0.00000000
      2.19000000	    -22.68325915	      8.06950097	     -5.23888691	     -3.22193326	      0.93417850	      0.39664381	    -10.67621211	     -8.53242007	      8.12493860	     11.24908036	     11.24908036	    -31.78851335	      0.00000000	      0.00000000	     79.09251442	     -4.91460410	     -4.97883781	     93.49120180	     93.49120180	      4.95815585	      0.00000000	      0.00000000	    -16.49025235	    -16.05058200	     -0.26366936	     69.32398279	    -18.75630159	      3.41412630	    131.32587047	     28.63683591	      0.00000000	      0.00000000	    -76.20074685	    -13.16603001	    -39.91077064	     79.28790184	     87.73144346	      0.00000000	      0.00000000
      2.19500000	    -22.68002323	      8.30304791	     -4.29514386	     -3.19201281	      0.93677717	      0.39651429	    -11.82001053	     -8.49854712	      8.38337152	     11.24148538	     11.24148538	    -35.20134879	      0.00000000	      0.00000000	     78.98027394	     -4.21990850	     -5.58013706	     89.38601430	     89.38601430	      5.09577286	      0.00000000	      0.00000000	    -16.52964096	    -16.50562578	     -1.12099773	     67.52406926	    -19.27701540	      3.26565067	    132.44087718	     28.82080930	      0.00000000	      0.00000000	    -76.08122751	    -13.00345427	    -40.39717426	     80.15456690	     87.93524068	      0.00000000	      0.00000000
      2.20000000	    -22.57435451	      8.43443144	     -3.54788759	     -3.16220058	      0.93983093	      0.39648172	    -12.78999940	     -8.32826207	      8.92111945	     11.68881157	     11.68881157	    -38.03159102	      0.00000000	      0.00000000	     78.50543119	     -3.70316895	     -6.18866399	     85.13930541	     85.13930541	      5.17996012	      0.00000000	      0.00000000	    -16.73437684	    -16.85947706	     -1.74803144	     65.39953609	    -19.86170220	      3.13568686	    133.32711322	     29.62316471	      0.00000000	      0.00000000	    -75.55283284	    -12.95017365	    -40.72550609	     80.95362029	     87.91414080	      0.00000000	      0.00000000
      2.20500000	    -22.36830309	      8.46001104	     -3.01435552	     -3.13253176	      0.94326016	      0.39657876	    -13.54726317	     -8.02269014	      9.70964760	     12.70079857	     12.70079857	    -39.91782900	      0.00000000	      0.00000000	     77.69340613	     -3.37978654	     -6.79260807	     80.78721042	     80.78721042	      5.18398341	      0.00000000	      0.00000000	    -17.08857992	    -17.10501998	     -2.11409993	     62.99213772	    -20.49490332	      3.04015402	    134.02554281	     30.17167574	      0.00000000	      0.00000000	    -74.62685303	    -13.02955514	    -40.88423524	     81.67618160	     87.87126212	      0.00000000	      0.00000000
      2.21000000	    -22.09419487	      8.40352526	     -2.70792550	     -3.10308520	      0.94691802	      0.39683515	    -13.98004762	     -7.60763733	     10.63922590	     14.52700505	     14.52700505	    -39.98500950	      0.00000000	      0.00000000	     76.60354776	     -3.25579825	     -7.40681321	     76.36251998	     76.36251998	      5.07431689	      0.00000000	      0.00000000	    -17.54204361	    -17.27039319	     -2.19836431	     60.34910761	    -21.15132565	      2.95721479	    134.47618895	     30.81380500	      0.00000000	      0.00000000	    -73.33879866	    -13.25479708	    -40.85686980	     82.33637808	     87.80390330	      0.00000000	      0.00000000
      2.21500000	    -21.67515780	      8.23463310	     -2.54088917	     -3.07368160	      0.95092239	      0.39710496	    -14.33820418	     -7.05695323	     11.58895968	     16.69969656	     16.69969656	    -39.98990845	      0.00000000	      0.00000000	     75.17099139	     -3.23914263	     -7.99359417	     71.90267147	     71.90267147	      4.84182254	      0.00000000	      0.00000000	    -18.19374801	    -17.29875356	     -2.07961621	     57.49331203	    -21.80902000	      2.85151999	    134.66546653	     31.54486827	      0.00000000	      0.00000000	    -71.67928629	    -13.62767926	    -40.61773063	     82.91667644	     87.70474573	      0.00000000	      0.00000000
      2.22000000	    -21.11611796	      7.97281766	     -2.46348765	     -3.04430321	      0.95520851	      0.39731540	    -14.63131242	     -6.39499060	     12.40321931	     19.20318990	     19.20318990	    -39.99070723	      0.00000000	      0.00000000	     73.42385173	     -3.27647561	     -8.55843344	     67.44105530	     67.44105530	      4.46723286	      0.00000000	      0.00000000	    -19.04015783	    -17.20135618	     -1.80146030	     54.45095467	    -22.43924461	      2.67555952	    134.57453832	     32.33147952	      0.00000000	      0.00000000	    -69.68218541	    -14.14532358	    -40.15042978	     83.43002045	     87.56607509	      0.00000000	      0.00000000
